<mxfile host="65bd71144e">
    <diagram id="5oAZnc2tMIki0pwOfTk4" name="Page-1">
        <mxGraphModel dx="1043" dy="741" grid="1" gridSize="10" guides="1" tooltips="1" connect="1" arrows="1" fold="1" page="1" pageScale="1" pageWidth="827" pageHeight="1169" math="0" shadow="0">
            <root>
                <mxCell id="0"/>
                <mxCell id="1" parent="0"/>
                <mxCell id="2" value="Rock,Paper,Scissors" style="rounded=0;whiteSpace=wrap;html=1;" vertex="1" parent="1">
                    <mxGeometry x="360" y="120" width="120" height="60" as="geometry"/>
                </mxCell>
                <mxCell id="3" value="Process" style="rounded=0;whiteSpace=wrap;html=1;" vertex="1" parent="1">
                    <mxGeometry x="360" y="240" width="120" height="60" as="geometry"/>
                </mxCell>
                <mxCell id="4" value="Input" style="rounded=0;whiteSpace=wrap;html=1;" vertex="1" parent="1">
                    <mxGeometry x="160" y="240" width="120" height="60" as="geometry"/>
                </mxCell>
                <mxCell id="5" value="Output" style="rounded=0;whiteSpace=wrap;html=1;" vertex="1" parent="1">
                    <mxGeometry x="560" y="240" width="120" height="60" as="geometry"/>
                </mxCell>
                <mxCell id="6" value="" style="endArrow=classic;html=1;exitX=0.5;exitY=1;exitDx=0;exitDy=0;entryX=0.5;entryY=0;entryDx=0;entryDy=0;" edge="1" parent="1" source="2" target="3">
                    <mxGeometry width="50" height="50" relative="1" as="geometry">
                        <mxPoint x="390" y="410" as="sourcePoint"/>
                        <mxPoint x="440" y="360" as="targetPoint"/>
                    </mxGeometry>
                </mxCell>
                <mxCell id="7" value="Enter your move, Rock,Paper,Scissors" style="rounded=0;whiteSpace=wrap;html=1;" vertex="1" parent="1">
                    <mxGeometry x="160" y="360" width="120" height="60" as="geometry"/>
                </mxCell>
                <mxCell id="8" value="Show if the user wins,loses or ties with the computer." style="rounded=0;whiteSpace=wrap;html=1;" vertex="1" parent="1">
                    <mxGeometry x="560" y="360" width="120" height="60" as="geometry"/>
                </mxCell>
                <mxCell id="9" value="Randomly assign numbers 1-3 to objects then decide if the random assigned number wins,loses or ties with the user input" style="rounded=0;whiteSpace=wrap;html=1;" vertex="1" parent="1">
                    <mxGeometry x="337" y="360" width="166" height="80" as="geometry"/>
                </mxCell>
                <mxCell id="10" value="" style="endArrow=classic;html=1;exitX=0.5;exitY=1;exitDx=0;exitDy=0;entryX=0.5;entryY=0;entryDx=0;entryDy=0;" edge="1" parent="1" source="5" target="8">
                    <mxGeometry width="50" height="50" relative="1" as="geometry">
                        <mxPoint x="630" y="310" as="sourcePoint"/>
                        <mxPoint x="420" y="340" as="targetPoint"/>
                    </mxGeometry>
                </mxCell>
                <mxCell id="11" value="" style="endArrow=classic;html=1;exitX=0.5;exitY=1;exitDx=0;exitDy=0;entryX=0.5;entryY=0;entryDx=0;entryDy=0;" edge="1" parent="1" source="3" target="9">
                    <mxGeometry width="50" height="50" relative="1" as="geometry">
                        <mxPoint x="370" y="390" as="sourcePoint"/>
                        <mxPoint x="420" y="340" as="targetPoint"/>
                    </mxGeometry>
                </mxCell>
                <mxCell id="12" value="" style="endArrow=classic;html=1;exitX=0.5;exitY=1;exitDx=0;exitDy=0;" edge="1" parent="1" source="4" target="7">
                    <mxGeometry width="50" height="50" relative="1" as="geometry">
                        <mxPoint x="370" y="390" as="sourcePoint"/>
                        <mxPoint x="420" y="340" as="targetPoint"/>
                    </mxGeometry>
                </mxCell>
            </root>
        </mxGraphModel>
    </diagram>
</mxfile>